<?xml version="1.0" encoding="utf-8"?>
<!-- Generator: Adobe Illustrator 23.1.0, SVG Export Plug-In . SVG Version: 6.00 Build 0)  -->
<!DOCTYPE svg PUBLIC "-//W3C//DTD SVG 1.1//EN" "http://www.w3.org/Graphics/SVG/1.1/DTD/svg11.dtd" [
	<!ENTITY ns_extend "http://ns.adobe.com/Extensibility/1.0/">
	<!ENTITY ns_ai "http://ns.adobe.com/AdobeIllustrator/10.0/">
	<!ENTITY ns_graphs "http://ns.adobe.com/Graphs/1.0/">
	<!ENTITY ns_vars "http://ns.adobe.com/Variables/1.0/">
	<!ENTITY ns_imrep "http://ns.adobe.com/ImageReplacement/1.0/">
	<!ENTITY ns_sfw "http://ns.adobe.com/SaveForWeb/1.0/">
	<!ENTITY ns_custom "http://ns.adobe.com/GenericCustomNamespace/1.0/">
	<!ENTITY ns_adobe_xpath "http://ns.adobe.com/XPath/1.0/">
]>
<svg version="1.1" id="Слой_2" xmlns:x="&ns_extend;" xmlns:i="&ns_ai;" xmlns:graph="&ns_graphs;"
	 xmlns="http://www.w3.org/2000/svg" xmlns:xlink="http://www.w3.org/1999/xlink" x="0px" y="0px" viewBox="0 0 685 685"
	 style="enable-background:new 0 0 685 685;" xml:space="preserve">
<style type="text/css">
	.st0{fill:#FFFFFF;stroke:#010202;stroke-miterlimit:10;}
	.st1{fill:#FFFFFF;stroke:#FFFFFF;stroke-miterlimit:10;}
</style>
<metadata>
	<sfw  xmlns="&ns_sfw;">
		<slices></slices>
		<sliceSourceBounds  bottomLeftOrigin="true" height="599.7" width="675.1" x="61.5" y="393.4"></sliceSourceBounds>
	</sfw>
</metadata>
<polygon class="st0" id = "339А" name = "339A" points="612.7,94.5 570.2,94.5 570.2,39 586.1,39 591.5,39 601.4,39 612.7,39 612.7,56 612.7,66.7 612.7,70.9 
	612.7,73.3 612.7,75.7 612.7,77.9 612.7,81 612.7,83.4 612.7,85 612.7,85.7 612.7,86.6 612.7,87.8 612.7,88.7 612.7,89.7 
	612.7,90.5 612.7,91.4 612.7,92.2 "/>
<polygon class="st0" id = "335А" name = "335A" points="612.7,94 612.7,128.9 612.7,142 570.2,142 570.2,94 "/>
<polygon class="st0" id = "332А" name = "332A" points="612.7,142 612.7,174.5 612.7,188.7 570.2,188.7 570.2,142 "/>
<polygon class="st0" id = "330А" name = "330A" points="612.7,188.7 612.7,225.1 612.7,258.4 570.2,258.4 570.2,188.7 "/>
<polygon class="st0" id = "nn2" name = "Нет номера" points="612.7,258.4 612.7,282.1 612.7,305.9 570.2,305.9 570.2,258.4 "/>
<polygon class="st0" id = "326А" name = "326A" points="612.7,305.9 612.7,317.1 612.7,328.4 570.2,328.4 570.2,305.9 "/>
<polygon class="st0" id = "nn1" name = "Нет номера" points="612.7,328.4 612.7,340.5 612.7,352.5 570.2,352.5 570.2,328.4 "/>
<polygon class="st0" id = "324А" name = "324A" points="612.7,352.5 612.7,367.8 612.7,401.1 570.2,401.1 570.2,352.5 "/>
<polygon class="st0" id = "-3" name = "Мы сами хз что тут" points="570.2,401.1 570.2,466.1 586.6,466.1 586.6,441.1 586.6,401.1 "/>
<polygon class="st0" id = "323А" name = "323A" points="570.2,466.1 570.2,563.3 662.7,563.3 662.7,589.7 679.9,589.7 679.9,466.1 658.2,466.1 632.7,466.1 
	622.8,466.1 605.5,466.1 596.6,466.1 584.4,466.1 577,466.1 "/>
<polygon class="st0" id = "340А" name = "340A" points="552.3,39 508.6,39 508.6,66.5 552.3,66.5 552.3,55.4 "/>
<polygon class="st0" id = "-2" name = "Мы сами хз что тут" points="508.6,66.5 508.6,94 552.3,94 552.3,84.6 552.3,66.5 "/>
<polygon class="st0" id = "S_R2" name = "Лестница" points="552.3,94 552.3,104.9 552.3,115.8 508.6,115.8 508.6,94 "/>
<polygon class="st0" id = "337А" name = "337A" points="552.3,115.8 552.3,128.9 552.3,142 508.6,142 508.6,115.8 "/>
<polygon class="st0" id = "-1" name = "Мы сами хз что тут" points="552.3,142 552.3,153.7 552.3,165.4 508.6,165.4 508.6,142 "/>
<polygon class="st0" id = "334А" name = "334A" points="552.3,165.4 552.3,202.9 552.3,214.1 508.6,214.1 508.6,165.4 "/>
<polygon class="st0" id = "333А" name = "333A" points="552.3,214.1 552.3,225.1 552.3,236.2 508.6,236.2 508.6,214.1 "/>
<polygon class="st0" id = "338А" name = "338A" points="552.3,236.2 552.3,247.3 552.3,258.4 508.6,258.4 508.6,236.2 "/>
<polygon class="st0" id = "331А" name = "331A" points="552.3,258.4 552.3,282.1 552.3,305.9 508.6,305.9 508.6,258.4 "/>
<polygon class="st0" id = "ЛабА" name = "ЛабA" points="552.3,305.9 552.3,317.1 552.3,328.4 508.6,328.4 508.6,305.9 "/>
<polygon class="st0" id = "329А" name = "329A" points="552.3,328.4 552.3,340.5 552.3,352.5 508.6,352.5 508.6,328.4 "/>
<polygon class="st0" id = "S_R1" name = "Лестница" points="552.3,401.1 552.3,466.1 544.8,466.1 508.6,466.1 508.6,441.1 508.6,401.1 "/>
<polygon class="st0" id = "322А" name = "322A" points="519.4,505.3 471.5,505.3 471.5,466.1 495.5,466.1 519.4,466.1 "/>
<polygon class="st0" id = "319А" name = "319A" points="471.5,505.3 424.8,505.3 424.8,466.1 448.2,466.1 471.5,466.1 "/>
<polygon class="st0" id = "316А" name = "316A" points="424.8,505.3 400.9,505.3 376.9,505.3 376.9,466.1 424.8,466.1 "/>
<polygon class="st0" id = "315А" name = "315A" points="376.9,505.3 359.4,505.3 311.5,505.3 311.5,466.1 376.9,466.1 "/>
<polygon class="st0" id = "309А" name = "309A" points="311.5,505.3 279.5,505.3 240.3,505.3 240.3,466.1 311.5,466.1 "/>
<polygon class="st0" id = "311А" name = "311A" points="240.3,505.3 230.9,505.3 221.6,505.3 221.6,466.1 240.3,466.1 "/>
<polygon class="st0" id = "306А" name = "306A" points="221.6,505.3 197.6,505.3 173.7,505.3 173.7,466.1 221.6,466.1 "/>
<polygon class="st0" id = "305А" name = "305A" points="173.7,505.3 161.4,505.3 149,505.3 149,466.1 173.7,466.1 "/>
<polygon class="st0" id = "305а" name = "305A" points="149.1,505.3 138.3,505.3 127.4,505.3 127.4,466.1 149.1,466.1 "/>
<polygon class="st0" id = "WC-m" name = "Мужской туалет" points="127.4,505.3 114.5,505.3 101.6,505.3 101.6,466.1 127.4,466.1 "/>
<polygon class="st0" id = "S_L" name = "Лестница" points="101.6,505.3 91.2,505.3 80.8,505.3 80.8,466.1 101.6,466.1 "/>
<polygon class="st0" id = "301-А" name = "301A" points="80.8,505.3 57.9,505.3 5.8,505.3 5.8,466.1 80.8,466.1 "/>
<polygon class="st0" id = "301А" name = "301A" points="45.8,505.3 45.8,514.4 45.8,523.6 5.8,523.6 5.8,505.3 "/>
<polygon class="st0" id = "301а" name = "301A" points="45.8,523.6 45.8,535.1 45.8,546.5 5.8,546.5 5.8,523.6 "/>
<polygon class="st0" id = "302А" name = "302A" points="5.8,546.5 5.8,637.7 101.6,637.7 101.6,546.5 76.2,546.5 "/>
<polygon class="st0" id = "303А" name = "303A" points="101.6,522.3 101.6,564 138.3,564 149.1,564 149.1,522.3 "/>
<polygon class="st0" id = "304А" name = "304A" points="149.1,522.3 221.6,522.3 221.6,564 185.3,564 149.1,564 "/>
<polygon class="st0" id = "307А" name = "307A" points="221.6,522.3 265.7,522.3 265.7,564 240.3,564 221.6,564 "/>
<polygon class="st0" id = "308А" name = "308A" points="265.7,522.3 311.5,522.3 311.5,564 281.1,564 265.7,564 "/>
<polygon class="st0" id = "310А" name = "310A" points="311.5,522.3 334.5,522.3 334.5,564 327.8,564 311.5,564 "/>
<polygon class="st0" id = "313А-312А" name = "313А и 312А" points="334.5,522.3 376.9,522.3 376.9,564 348.6,564 334.5,564 "/>
<polygon class="st0" id = "314А" name = "314A" points="376.9,522.3 400.9,522.3 400.9,564 388.9,564 376.9,564 "/>
<polygon class="st0" id = "317А" name = "317A" points="400.9,522.3 424.8,522.3 424.8,564 416.1,564 400.9,564 "/>
<polygon class="st0" id = "318А" name = "318A" points="424.8,522.3 448.2,522.3 448.2,564 440.3,564 424.8,564 "/>
<polygon class="st0" id = "320А" name = "320A" points="448.2,522.3 471.5,522.3 471.5,564 459.8,564 448.2,564 "/>
<polygon class="st0" id = "321А" name = "321A" points="471.5,522.3 519.4,522.3 519.4,564 500.2,564 485.2,564 471.5,564 "/>
<path class="st0" id = "." name = "всякие штучки" d="M519.4,564v-41.7h50.8v41c-0.6,7-4,13.1-8.8,17.4s-11.2,6.7-17.8,6.4C531.3,586.5,520.9,576.8,519.4,564z"/>
<polygon class="st1" id = "p1" name = "просмотреть панораму" points="45.8,505.3 45.8,546.5 57.7,546.5 73.7,546.5 88.9,546.5 101.6,546.5 101.6,505.3 "/>
<polygon class="st1" id = "p2" name = "просмотреть панораму" points="101.6,505.3 189.9,505.3 189.9,508.3 189.9,522.3 101.6,522.3 "/>
<polygon class="st1" id = "p3" name = "просмотреть панораму" points="189.9,505.3 288.6,505.3 288.6,508.8 288.6,522.3 189.9,522.3 "/>
<polygon class="st1" id = "p4" name = "просмотреть панораму" points="288.6,505.3 376.9,505.3 376.9,508.5 376.9,522.3 288.6,522.3 "/>
<polygon class="st1" id = "p5" name = "просмотреть панораму" points="376.9,505.3 424.8,505.3 424.8,509.2 424.8,522.3 376.9,522.3 "/>
<polygon class="st1" id = "p6" name = "просмотреть панораму" points="424.8,505.3 471.5,505.3 471.5,508.5 471.5,522.3 424.8,522.3 "/>
<polygon class="st1" id = "p7" name = "просмотреть панораму" points="471.5,505.3 508.6,505.3 508.6,509.2 508.6,522.3 471.5,522.3 "/>
<polygon class="st1" id = "p8" name = "просмотреть панораму" points="508.6,505.3 519.4,505.3 519.4,488.8 526.7,488.8 544.8,488.8 544.8,522.3 508.6,522.3 "/>
<polygon class="st1" id = "p9" name = "просмотреть панораму" points="544.8,522.3 570.2,522.3 570.2,488.8 548.7,488.8 544.8,488.8 "/>
<polygon class="st1" id = "p10" name = "просмотреть панораму" points="570.2,488.8 519.4,488.8 519.4,466.1 552.3,466.1 552.3,433.6 555.8,433.6 570.2,433.6 "/>
<polygon class="st1" id = "p11" name = "просмотреть панораму" points="552.3,433.6 552.3,278.5 557.5,278.5 570.2,278.5 570.2,433.6 "/>
<polygon class="st1" id = "p12" name = "просмотреть панораму" points="552.3,278.5 552.3,39 556.5,39 570.2,39 570.2,278.5 "/>
<polygon class="st0" id = "327А" name = "327А" points="508.6,352.5 508.6,357.7 508.6,376.8 552.3,376.8 552.3,352.5 "/>
<polygon class="st0" id = "-0" name = "Мы сами хз что тут" points="508.6,376.8 508.6,381.9 508.6,401.1 552.3,401.1 552.3,376.8 "/>
</svg>
