<?xml version="1.0" encoding="utf-8"?>
<!-- Generator: Adobe Illustrator 23.1.0, SVG Export Plug-In . SVG Version: 6.00 Build 0)  -->
<svg version="1.1" id="Слой_1" xmlns="http://www.w3.org/2000/svg" xmlns:xlink="http://www.w3.org/1999/xlink" x="0px" y="0px"
	 viewBox="0 0 1024 1024" style="enable-background:new 0 0 1024 1024;" xml:space="preserve">
<style type="text/css">
	.st0{fill:none;stroke:#000000;stroke-miterlimit:10;}
</style>
<g>
	<polygon class="st0" id = "Корпус А" name = "Корпус А" points="88.7,847.9 118.7,848 118.7,809.9 88.8,809.8 89,573.4 177.5,573.5 177.2,809.9 147.3,809.9 
		147.2,848 332.4,848.2 554.2,848.4 554.3,801.1 543.4,801.1 554.6,470.2 602.3,470.2 602,435 635,436 635,471.6 670.3,471.6 
		656.4,801.2 636.6,801.2 636.6,852.4 913.6,852.7 905.3,965.7 708.4,965.5 708.4,944.5 455.5,944.2 174.4,943.9 174.3,1005.6 
		88.5,1005.5 88.6,970.9 88.6,923.9 88.7,894.9 88.7,874.9 88.7,865.6 88.7,856.7 88.7,854.3 88.7,852.1 88.7,849.9 88.7,848.7 	"/>
	<polygon class="st0" id = "Корпус Б" name = "Корпус Б" points="68.4,414.5 656.5,437.3 667.3,317.8 294.4,301.4 68.4,291.5 68.4,346.6 68.4,376.9 68.4,393.9 
		68.4,405.7 68.4,409.3 68.4,411.8 68.4,413.2 	"/>
	<polygon class="st0" id = "Корпус В" name = "Корпус В" points="814.5,23.3 972.3,33.4 959.8,191.3 951.8,291.5 931.4,291.5 931.4,328.9 964.1,328.9 951.8,451.1 
		656.5,437.3 667.3,317.8 857.9,325 857.9,291.5 792.6,291.5 803.4,159.2 807.2,112.8 809.6,83.1 812.2,52 813.6,34.2 813.8,31.9 
		814.1,28.8 814.4,25.5 	"/>
</g>
</svg>
